<svg width="16" height="14" viewBox="0 0 16 14" fill="none" xmlns="http://www.w3.org/2000/svg">
<path id="Vector" d="M0.935075 8.14581C0.998724 8.15665 1.06314 8.16165 1.12759 8.16077L12.1017 8.16077L11.8624 8.27757C11.6285 8.39376 11.4157 8.55187 11.2336 8.74478L8.15617 11.9743C7.75087 12.3804 7.68276 13.0335 7.99478 13.5219C8.35793 14.0424 9.05435 14.1554 9.55033 13.7743C9.5904 13.7435 9.62848 13.7099 9.66427 13.6738L15.2292 7.83373C15.6641 7.37784 15.6645 6.63831 15.2301 6.18191C15.2298 6.18162 15.2295 6.18129 15.2292 6.181L9.66427 0.340946C9.22903 -0.114542 8.52433 -0.11352 8.09026 0.343245C8.0561 0.379197 8.02421 0.417449 7.99479 0.457746C7.68277 0.946157 7.75087 1.59933 8.15617 2.00536L11.228 5.24075C11.3913 5.4123 11.5791 5.55615 11.7845 5.66707L12.1184 5.82475L1.18884 5.82475C0.620272 5.8026 0.121443 6.21939 0.01463 6.80588C-0.0837654 7.44263 0.32832 8.04251 0.935075 8.14581Z" fill="white"/>
</svg>
