<svg width="10" height="9" viewBox="0 0 10 9" fill="none" xmlns="http://www.w3.org/2000/svg">
<path id="Vector" d="M0.60105 5.23659C0.641967 5.24356 0.683377 5.24677 0.724808 5.24621L7.77961 5.24621L7.62578 5.3213C7.47542 5.39599 7.33862 5.49763 7.22153 5.62164L5.24318 7.69778C4.98263 7.9588 4.93885 8.3787 5.13943 8.69268C5.37289 9.02726 5.82059 9.0999 6.13943 8.85491C6.16519 8.83511 6.18967 8.81352 6.21268 8.79029L9.79015 5.03597C10.0697 4.7429 10.07 4.26748 9.79071 3.97408C9.79053 3.9739 9.79033 3.97369 9.79015 3.9735L6.21268 0.219179C5.93287 -0.0736345 5.47985 -0.0729775 5.20081 0.220657C5.17885 0.243769 5.15835 0.268361 5.13944 0.294265C4.93885 0.608243 4.98263 1.02814 5.24318 1.28916L7.21795 3.36905C7.32293 3.47934 7.44362 3.57181 7.5757 3.64312L7.79034 3.74448L0.764183 3.74448C0.398676 3.73024 0.0780005 3.99818 0.00933497 4.37521C-0.0539194 4.78455 0.210993 5.17019 0.60105 5.23659Z" fill="#E31E25"/>
</svg>
