<svg width="15" height="10" viewBox="0 0 15 10" fill="none" xmlns="http://www.w3.org/2000/svg">
<g id="Vector">
<path d="M9.94312 5.07455L15 8.17455V1.84364L9.94312 5.07455Z" fill="#E31E25"/>
<path d="M0 1.84364V8.17455L5.05688 5.07455L0 1.84364Z" fill="#E31E25"/>
<path d="M14.0625 0H0.9375C0.469687 0 0.0984375 0.338182 0.028125 0.773636L7.5 5.54727L14.9719 0.773636C14.9016 0.338182 14.5303 0 14.0625 0Z" fill="#E31E25"/>
<path d="M9.08437 5.62364L7.75781 6.47091C7.67906 6.52091 7.59 6.54545 7.5 6.54545C7.41 6.54545 7.32094 6.52091 7.24219 6.47091L5.91563 5.62273L0.03 9.23273C0.102187 9.66455 0.471563 10 0.9375 10H14.0625C14.5284 10 14.8978 9.66455 14.97 9.23273L9.08437 5.62364Z" fill="#E31E25"/>
</g>
</svg>
