<svg width="21" height="21" viewBox="0 0 21 21" fill="none" xmlns="http://www.w3.org/2000/svg">
<g id="Vector">
<path d="M15.481 13.7033C15.2894 13.511 15.0617 13.3584 14.811 13.2543C14.5602 13.1502 14.2914 13.0966 14.02 13.0966C13.7485 13.0966 13.4797 13.1502 13.2289 13.2543C12.9782 13.3584 12.7505 13.511 12.5589 13.7033C11.9762 14.286 11.0613 14.3936 10.4023 13.8988C9.71619 13.3838 9.06736 12.8199 8.46095 12.2113C7.85235 11.6049 7.28844 10.956 6.77336 10.2699C6.27864 9.61091 6.38625 8.69602 6.96892 8.11334C7.16122 7.92171 7.3138 7.694 7.41791 7.44328C7.52202 7.19255 7.57561 6.92374 7.57561 6.65226C7.57561 6.38078 7.52202 6.11197 7.41791 5.86124C7.3138 5.61051 7.16122 5.38281 6.96892 5.19117L5.0231 3.25223C4.83418 3.05929 4.60839 2.90631 4.35917 2.80236C4.10994 2.69842 3.84236 2.64564 3.57233 2.64717C3.30039 2.6465 3.03099 2.69961 2.77965 2.80346C2.52831 2.9073 2.29998 3.05981 2.10781 3.25223L1.17271 4.18045C0.727011 4.65966 0.394365 5.23267 0.199228 5.85734C0.00409153 6.48202 -0.0485753 7.14248 0.0450992 7.79019C0.265121 10.3686 1.95654 13.4695 4.56243 16.0823C7.16832 18.695 10.3036 20.3796 12.882 20.6271C13.0744 20.6374 13.2672 20.6374 13.4596 20.6271C14.0146 20.6504 14.5687 20.5627 15.0894 20.369C15.61 20.1754 16.0868 19.8798 16.4918 19.4995L17.42 18.5644C17.6124 18.3722 17.7649 18.1439 17.8688 17.8926C17.9726 17.6412 18.0257 17.3718 18.025 17.0999C18.0266 16.8299 17.9738 16.5623 17.8698 16.313C17.7659 16.0638 17.6129 15.838 17.42 15.6491L15.481 13.7033Z" fill="#E31E25"/>
<path d="M17.6469 3.01845C16.6913 2.05927 15.5554 1.29873 14.3045 0.780675C13.0536 0.262621 11.7126 -0.0026964 10.3587 2.06591e-05C10.1763 2.06591e-05 10.0014 0.0724608 9.87247 0.201405C9.74352 0.330349 9.67108 0.505235 9.67108 0.68759C9.67108 0.869945 9.74352 1.04483 9.87247 1.17378C10.0014 1.30272 10.1763 1.37516 10.3587 1.37516C11.5388 1.37512 12.7074 1.6088 13.7968 2.06272C14.8862 2.51664 15.8749 3.18181 16.7059 4.01984C17.537 4.85788 18.1938 5.85219 18.6385 6.94539C19.0832 8.03859 19.307 9.20904 19.2971 10.3892C19.2971 10.5716 19.3695 10.7464 19.4984 10.8754C19.6274 11.0043 19.8023 11.0768 19.9846 11.0768C20.167 11.0768 20.3419 11.0043 20.4708 10.8754C20.5998 10.7464 20.6722 10.5716 20.6722 10.3892C20.6854 9.02089 20.4245 7.66379 19.9049 6.3979C19.3853 5.13201 18.6176 3.98295 17.6469 3.01845Z" fill="#E31E25"/>
<path d="M13.7346 6.95135C14.1248 7.3392 14.4335 7.80118 14.6425 8.31011C14.8515 8.81904 14.9566 9.36463 14.9516 9.91478C14.9516 10.0971 15.024 10.272 15.153 10.401C15.2819 10.5299 15.4568 10.6023 15.6392 10.6023C15.8215 10.6023 15.9964 10.5299 16.1253 10.401C16.2543 10.272 16.3267 10.0971 16.3267 9.91478C16.3358 9.18667 16.2003 8.464 15.9279 7.78868C15.6556 7.11337 15.2519 6.49885 14.7402 5.98077C14.2285 5.46269 13.619 5.05137 12.9472 4.77065C12.2753 4.48993 11.5544 4.34541 10.8262 4.34546C10.6438 4.34546 10.469 4.4179 10.34 4.54685C10.2111 4.67579 10.1386 4.85068 10.1386 5.03303C10.1386 5.21539 10.2111 5.39027 10.34 5.51922C10.469 5.64816 10.6438 5.7206 10.8262 5.7206C11.3681 5.72468 11.9038 5.83548 12.4028 6.04665C12.9019 6.25783 13.3544 6.56525 13.7346 6.95135Z" fill="#E31E25"/>
</g>
</svg>
