<svg width="86" height="66" viewBox="0 0 86 66" fill="none" xmlns="http://www.w3.org/2000/svg">
<path d="M78.1371 65.2789H9.18603C8.15701 65.2783 7.17028 64.8694 6.44242 64.142C5.71457 63.4146 5.30504 62.4281 5.30374 61.3991V22.9448C5.30374 22.619 5.43318 22.3065 5.66358 22.0761C5.89399 21.8457 6.20648 21.7162 6.53231 21.7162H80.7933C81.1192 21.7162 81.4316 21.8457 81.662 22.0761C81.8924 22.3065 82.0219 22.619 82.0219 22.9448V61.3991C82.0206 62.4285 81.6107 63.4154 80.8823 64.1428C80.1539 64.8703 79.1666 65.2789 78.1371 65.2789ZM7.76089 24.1709V61.3966C7.76154 61.7742 7.91197 62.136 8.17917 62.4028C8.44636 62.6695 8.80848 62.8193 9.18603 62.8193H78.1371C78.5143 62.8187 78.8758 62.6686 79.1424 62.4019C79.4091 62.1352 79.5592 61.7738 79.5598 61.3966V24.1709H7.76089Z" fill="#E31E25"/>
<path d="M83.4458 24.1709H2.5542C1.87708 24.1699 1.22798 23.9005 0.749185 23.4217C0.27039 22.9429 0.000974971 22.2938 0 21.6167V13.6605C0.00064995 12.9832 0.269922 12.3337 0.748751 11.8547C1.22758 11.3756 1.87687 11.106 2.5542 11.1051H83.4458C84.1231 11.106 84.7724 11.3756 85.2512 11.8547C85.7301 12.3337 85.9994 12.9832 86 13.6605V21.6167C85.999 22.2938 85.7296 22.9429 85.2508 23.4217C84.772 23.9005 84.1229 24.1699 83.4458 24.1709ZM2.5542 13.5622C2.54135 13.5622 2.52863 13.5648 2.51677 13.5697C2.50492 13.5747 2.49416 13.5819 2.48513 13.5911C2.4761 13.6002 2.46898 13.611 2.46418 13.623C2.45937 13.6349 2.45698 13.6476 2.45714 13.6605V21.6167C2.45714 21.6425 2.46737 21.6671 2.48557 21.6853C2.50377 21.7035 2.52846 21.7138 2.5542 21.7138H83.4458C83.4715 21.7138 83.4962 21.7035 83.5144 21.6853C83.5326 21.6671 83.5429 21.6425 83.5429 21.6167V13.6605C83.543 13.6476 83.5406 13.6349 83.5358 13.623C83.531 13.611 83.5239 13.6002 83.5149 13.5911C83.5058 13.5819 83.4951 13.5747 83.4832 13.5697C83.4714 13.5648 83.4586 13.5622 83.4458 13.5622H2.5542Z" fill="#E31E25"/>
<path d="M75.2316 13.5622H58.6729C58.347 13.5622 58.0346 13.4328 57.8042 13.2024C57.5738 12.972 57.4443 12.6595 57.4443 12.3336V6.80506C57.4443 6.47922 57.5738 6.16673 57.8042 5.93633C58.0346 5.70592 58.347 5.57649 58.6729 5.57649H75.2316C75.5574 5.57649 75.8699 5.70592 76.1003 5.93633C76.3307 6.16673 76.4601 6.47922 76.4601 6.80506V12.3336C76.4601 12.6595 76.3307 12.972 76.1003 13.2024C75.8699 13.4328 75.5574 13.5622 75.2316 13.5622ZM59.9015 11.1051H74.003V8.03363H59.9015V11.1051Z" fill="#E31E25"/>
<path d="M70.692 8.03977H63.2112C62.8854 8.03977 62.5729 7.91033 62.3425 7.67993C62.1121 7.44953 61.9827 7.13704 61.9827 6.8112V1.22857C61.9827 0.902734 62.1121 0.590242 62.3425 0.35984C62.5729 0.129439 62.8854 0 63.2112 0H70.692C71.0178 0 71.3303 0.129439 71.5607 0.35984C71.7911 0.590242 71.9206 0.902734 71.9206 1.22857V6.8112C71.9206 7.13704 71.7911 7.44953 71.5607 7.67993C71.3303 7.91033 71.0178 8.03977 70.692 8.03977ZM64.4398 5.58263H69.4634V2.45714H64.4398V5.58263Z" fill="#E31E25"/>
<path d="M27.3271 13.5622H10.7684C10.4426 13.5622 10.1301 13.4328 9.8997 13.2024C9.66929 12.972 9.53986 12.6595 9.53986 12.3336V6.80506C9.53986 6.47922 9.66929 6.16673 9.8997 5.93633C10.1301 5.70592 10.4426 5.57649 10.7684 5.57649H27.3271C27.653 5.57649 27.9654 5.70592 28.1958 5.93633C28.4262 6.16673 28.5557 6.47922 28.5557 6.80506V12.3336C28.5557 12.6595 28.4262 12.972 28.1958 13.2024C27.9654 13.4328 27.653 13.5622 27.3271 13.5622ZM11.997 11.1051H26.0985V8.03363H11.997V11.1051Z" fill="#E31E25"/>
<path d="M22.7888 8.03977H15.308C14.9822 8.03977 14.6697 7.91033 14.4393 7.67993C14.2089 7.44953 14.0794 7.13704 14.0794 6.8112V1.22857C14.0794 0.902734 14.2089 0.590242 14.4393 0.35984C14.6697 0.129439 14.9822 0 15.308 0H22.7888C23.1146 0 23.4271 0.129439 23.6575 0.35984C23.8879 0.590242 24.0173 0.902734 24.0173 1.22857V6.8112C24.0173 7.13704 23.8879 7.44953 23.6575 7.67993C23.4271 7.91033 23.1146 8.03977 22.7888 8.03977ZM16.5366 5.58263H21.5602V2.45714H16.5366V5.58263Z" fill="#E31E25"/>
<path d="M25.7607 36.1053H16.3117C15.9859 36.1053 15.6734 35.9758 15.443 35.7454C15.2126 35.515 15.0832 35.2025 15.0832 34.8767C15.0832 34.5508 15.2126 34.2384 15.443 34.008C15.6734 33.7776 15.9859 33.6481 16.3117 33.6481H25.7607C26.0865 33.6481 26.399 33.7776 26.6294 34.008C26.8598 34.2384 26.9893 34.5508 26.9893 34.8767C26.9893 35.2025 26.8598 35.515 26.6294 35.7454C26.399 35.9758 26.0865 36.1053 25.7607 36.1053Z" fill="#E31E25"/>
<path d="M21.0368 40.8303C20.711 40.8303 20.3985 40.7009 20.1681 40.4705C19.9377 40.2401 19.8083 39.9276 19.8083 39.6018V30.1528C19.8083 29.827 19.9377 29.5145 20.1681 29.2841C20.3985 29.0537 20.711 28.9243 21.0368 28.9243C21.3627 28.9243 21.6752 29.0537 21.9056 29.2841C22.136 29.5145 22.2654 29.827 22.2654 30.1528V39.6018C22.2654 39.9276 22.136 40.2401 21.9056 40.4705C21.6752 40.7009 21.3627 40.8303 21.0368 40.8303Z" fill="#E31E25"/>
<path d="M69.6883 36.1053H60.2393C59.9135 36.1053 59.601 35.9758 59.3706 35.7454C59.1402 35.515 59.0107 35.2025 59.0107 34.8767C59.0107 34.5508 59.1402 34.2384 59.3706 34.008C59.601 33.7776 59.9135 33.6481 60.2393 33.6481H69.6883C70.0141 33.6481 70.3266 33.7776 70.557 34.008C70.7874 34.2384 70.9168 34.5508 70.9168 34.8767C70.9168 35.2025 70.7874 35.515 70.557 35.7454C70.3266 35.9758 70.0141 36.1053 69.6883 36.1053Z" fill="#E31E25"/>
</svg>
