<svg width="90" height="64" viewBox="0 0 90 64" fill="none" xmlns="http://www.w3.org/2000/svg">
<path d="M66.4299 63.777H48.6014C48.413 63.7771 48.2269 63.7358 48.0563 63.656C47.8856 63.5762 47.7346 63.4599 47.6138 63.3153L40.9101 55.2781H15.4739C14.4507 55.2781 13.4695 54.8717 12.746 54.1482C12.0225 53.4247 11.616 52.4434 11.616 51.4202V20.8569C11.616 19.8337 12.0225 18.8525 12.746 18.129C13.4695 17.4055 14.4507 16.9991 15.4739 16.9991H23.5163V11.4862C23.5163 11.1451 23.6518 10.818 23.8929 10.5769C24.1341 10.3357 24.4612 10.2002 24.8022 10.2002H57.0964C57.4375 10.2002 57.7646 10.3357 58.0057 10.5769C58.2469 10.818 58.3824 11.1451 58.3824 11.4862V16.9991H66.4248C67.4479 16.9991 68.4292 17.4055 69.1527 18.129C69.8762 18.8525 70.2826 19.8337 70.2826 20.8569V31.3079H77.0596V23.9702C77.0596 23.6292 77.1951 23.3021 77.4363 23.0609C77.6774 22.8197 78.0045 22.6843 78.3456 22.6843H85.1457C85.396 22.6841 85.6409 22.7571 85.8504 22.8941C86.0599 23.0312 86.2248 23.2264 86.3249 23.4558C88.7468 28.7712 90 34.5443 90 40.3854C90 46.2266 88.7468 51.9997 86.3249 57.3151C86.2249 57.5443 86.0602 57.7394 85.851 57.8764C85.6417 58.0134 85.3971 58.0865 85.147 58.0866H78.3507C78.0097 58.0866 77.6826 57.9511 77.4414 57.71C77.2002 57.4688 77.0648 57.1417 77.0648 56.8007V49.4617H70.2878V59.9191C70.2878 60.9423 69.8813 61.9236 69.1578 62.647C68.4343 63.3705 67.4531 63.777 66.4299 63.777ZM49.1981 61.2051H66.4299C66.771 61.2051 67.0981 61.0696 67.3392 60.8284C67.5804 60.5873 67.7159 60.2602 67.7159 59.9191V48.1758C67.7159 47.8347 67.8514 47.5076 68.0925 47.2665C68.3337 47.0253 68.6608 46.8898 69.0018 46.8898H78.3507C78.6918 46.8898 79.0189 47.0253 79.26 47.2665C79.5012 47.5076 79.6367 47.8347 79.6367 48.1758V55.5147H84.3021C86.3624 50.7369 87.4251 45.5886 87.4251 40.3854C87.4251 35.1823 86.3624 30.034 84.3021 25.2562H79.6367V32.5938C79.6367 32.9349 79.5012 33.262 79.26 33.5031C79.0189 33.7443 78.6918 33.8798 78.3507 33.8798H69.0018C68.6608 33.8798 68.3337 33.7443 68.0925 33.5031C67.8514 33.262 67.7159 32.9349 67.7159 32.5938V20.8569C67.7159 20.5159 67.5804 20.1888 67.3392 19.9476C67.0981 19.7064 66.771 19.571 66.4299 19.571H57.0964C56.7554 19.571 56.4283 19.4355 56.1871 19.1943C55.946 18.9532 55.8105 18.6261 55.8105 18.285V12.7721H26.0882V18.285C26.0882 18.6261 25.9527 18.9532 25.7115 19.1943C25.4704 19.4355 25.1433 19.571 24.8022 19.571H15.4739C15.1328 19.571 14.8058 19.7064 14.5646 19.9476C14.3234 20.1888 14.188 20.5159 14.188 20.8569V51.4138C14.188 51.7549 14.3234 52.082 14.5646 52.3231C14.8058 52.5643 15.1328 52.6998 15.4739 52.6998H41.5132C41.7016 52.6997 41.8877 52.741 42.0584 52.8208C42.229 52.9005 42.3801 53.0168 42.5008 53.1614L49.1981 61.2051Z" fill="#E31E25"/>
<path d="M40.9526 12.7721C40.6115 12.7721 40.2844 12.6366 40.0432 12.3955C39.8021 12.1543 39.6666 11.8272 39.6666 11.4862V1.28596C39.6666 0.944899 39.8021 0.617812 40.0432 0.376648C40.2844 0.135484 40.6115 0 40.9526 0C41.2936 0 41.6207 0.135484 41.8619 0.376648C42.103 0.617812 42.2385 0.944899 42.2385 1.28596V11.4862C42.2385 11.8272 42.103 12.1543 41.8619 12.3955C41.6207 12.6366 41.2936 12.7721 40.9526 12.7721Z" fill="#E31E25"/>
<path d="M52.0015 2.57191H29.9023C29.5613 2.57191 29.2342 2.43643 28.993 2.19526C28.7519 1.9541 28.6164 1.62701 28.6164 1.28596C28.6164 0.944899 28.7519 0.617812 28.993 0.376648C29.2342 0.135484 29.5613 0 29.9023 0H52.0015C52.3425 0 52.6696 0.135484 52.9108 0.376648C53.152 0.617812 53.2874 0.944899 53.2874 1.28596C53.2874 1.62701 53.152 1.9541 52.9108 2.19526C52.6696 2.43643 52.3425 2.57191 52.0015 2.57191Z" fill="#E31E25"/>
<path d="M12.902 38.2713H1.28596C0.944899 38.2713 0.617811 38.1359 0.376648 37.8947C0.135484 37.6535 0 37.3264 0 36.9854C0 36.6443 0.135484 36.3172 0.376648 36.0761C0.617811 35.8349 0.944899 35.6994 1.28596 35.6994H12.902C13.2431 35.6994 13.5701 35.8349 13.8113 36.0761C14.0525 36.3172 14.188 36.6443 14.188 36.9854C14.188 37.3264 14.0525 37.6535 13.8113 37.8947C13.5701 38.1359 13.2431 38.2713 12.902 38.2713Z" fill="#E31E25"/>
<path d="M1.28596 49.3215C0.944899 49.3215 0.617811 49.1861 0.376648 48.9449C0.135484 48.7037 0 48.3766 0 48.0356V25.9352C0 25.5941 0.135484 25.267 0.376648 25.0259C0.617811 24.7847 0.944899 24.6492 1.28596 24.6492C1.62701 24.6492 1.9541 24.7847 2.19526 25.0259C2.43643 25.267 2.57191 25.5941 2.57191 25.9352V48.0356C2.57191 48.3766 2.43643 48.7037 2.19526 48.9449C1.9541 49.1861 1.62701 49.3215 1.28596 49.3215Z" fill="#E31E25"/>
<path d="M34.9266 46.6738C34.7085 46.6739 34.4941 46.6186 34.3033 46.513C34.1125 46.4075 33.9517 46.2552 33.836 46.0704C33.7203 45.8856 33.6535 45.6745 33.6418 45.4568C33.6301 45.239 33.6739 45.0219 33.7692 44.8258L37.4843 37.1706L32.0203 32.887C31.853 32.7559 31.7209 32.5853 31.6357 32.3905C31.5505 32.1958 31.5149 31.983 31.5321 31.7711C31.5493 31.5592 31.6188 31.3549 31.7343 31.1765C31.8498 30.998 32.0077 30.851 32.1939 30.7485L48.0523 22.0104C48.2998 21.8746 48.5851 21.8239 48.8642 21.8663C49.1433 21.9086 49.4007 22.0416 49.5967 22.2448C49.7927 22.448 49.9164 22.71 49.9487 22.9905C49.981 23.2709 49.9202 23.5542 49.7755 23.7966L45.2026 31.4481L50.3722 35.9489C50.5263 36.0833 50.6462 36.2525 50.7218 36.4426C50.7974 36.6326 50.8266 36.8379 50.807 37.0414C50.7874 37.245 50.7195 37.441 50.609 37.613C50.4985 37.7851 50.3485 37.9284 50.1716 38.0309L35.5708 46.5002C35.3751 46.6137 35.1528 46.6736 34.9266 46.6738ZM35.1387 32.0627L39.8878 35.792C40.119 35.9734 40.2811 36.2286 40.3471 36.515C40.413 36.8014 40.3789 37.1017 40.2504 37.366L37.919 42.1729L47.3232 36.7115L42.6937 32.6813C42.4667 32.4829 42.3165 32.2111 42.2695 31.9133C42.2225 31.6155 42.2816 31.3106 42.4365 31.052L45.1229 26.5511L35.1387 32.0627Z" fill="#E31E25"/>
</svg>
