<svg width="92" height="80" viewBox="0 0 92 80" fill="none" xmlns="http://www.w3.org/2000/svg">
<path d="M90.4918 80H70.8197C70.4718 80 70.1383 79.8618 69.8923 79.6159C69.6464 79.3699 69.5082 79.0363 69.5082 78.6885V74.4262C69.5099 73.1224 70.0286 71.8725 70.9506 70.9506C71.8725 70.0286 73.1224 69.5099 74.4262 69.5082H86.8852C88.1891 69.5099 89.439 70.0286 90.3609 70.9506C91.2828 71.8725 91.8015 73.1224 91.8033 74.4262V78.6885C91.8033 79.0363 91.6651 79.3699 91.4192 79.6159C91.1732 79.8618 90.8396 80 90.4918 80ZM72.1311 77.377H89.1803V74.4262C89.1796 73.8177 88.9376 73.2344 88.5073 72.8041C88.0771 72.3739 87.4937 72.1318 86.8852 72.1311H74.4262C73.8177 72.1318 73.2344 72.3739 72.8041 72.8041C72.3739 73.2344 72.1318 73.8177 72.1311 74.4262V77.377Z" fill="#E31E25"/>
<path d="M84.5902 72.1311H76.7213C76.3735 72.1311 76.0399 71.993 75.794 71.747C75.548 71.5011 75.4098 71.1675 75.4098 70.8197V5.2459C75.4098 3.8546 75.9625 2.52029 76.9463 1.53649C77.9301 0.552691 79.2644 0 80.6557 0C82.047 0 83.3814 0.552691 84.3652 1.53649C85.3489 2.52029 85.9016 3.8546 85.9016 5.2459V70.8197C85.9016 71.1675 85.7635 71.5011 85.5175 71.747C85.2716 71.993 84.938 72.1311 84.5902 72.1311ZM78.0328 69.5082H83.2787V5.2459C83.2787 4.55025 83.0023 3.88309 82.5104 3.3912C82.0185 2.8993 81.3514 2.62295 80.6557 2.62295C79.9601 2.62295 79.2929 2.8993 78.801 3.3912C78.3091 3.88309 78.0328 4.55025 78.0328 5.2459V69.5082Z" fill="#E31E25"/>
<path d="M20.9836 80H1.31148C0.96365 80 0.630071 79.8618 0.384122 79.6159C0.138173 79.3699 0 79.0363 0 78.6885V74.4262C0.00173495 73.1224 0.52044 71.8725 1.44237 70.9506C2.36431 70.0286 3.61422 69.5099 4.91803 69.5082H17.377C18.6809 69.5099 19.9308 70.0286 20.8527 70.9506C21.7746 71.8725 22.2933 73.1224 22.2951 74.4262V78.6885C22.2951 79.0363 22.1569 79.3699 21.911 79.6159C21.665 79.8618 21.3314 80 20.9836 80ZM2.62295 77.377H19.6721V74.4262C19.6714 73.8177 19.4294 73.2344 18.9991 72.8041C18.5689 72.3739 17.9855 72.1318 17.377 72.1311H4.91803C4.30955 72.1318 3.72619 72.3739 3.29593 72.8041C2.86567 73.2344 2.62364 73.8177 2.62295 74.4262V77.377Z" fill="#E31E25"/>
<path d="M15.082 72.1311H7.21311C6.86529 72.1311 6.53171 71.993 6.28576 71.747C6.03981 71.5011 5.90164 71.1675 5.90164 70.8197V5.2459C5.90164 3.8546 6.45433 2.52029 7.43813 1.53649C8.42193 0.552691 9.75624 0 11.1475 0C12.5388 0 13.8732 0.552691 14.857 1.53649C15.8407 2.52029 16.3934 3.8546 16.3934 5.2459V70.8197C16.3934 71.1675 16.2553 71.5011 16.0093 71.747C15.7634 71.993 15.4298 72.1311 15.082 72.1311ZM8.52459 69.5082H13.7705V5.2459C13.7705 4.55025 13.4941 3.88309 13.0022 3.3912C12.5103 2.8993 11.8432 2.62295 11.1475 2.62295C10.4519 2.62295 9.78473 2.8993 9.29283 3.3912C8.80094 3.88309 8.52459 4.55025 8.52459 5.2459V69.5082Z" fill="#E31E25"/>
<path d="M76.7213 57.0492H51.1475C50.7997 57.0492 50.4661 56.911 50.2202 56.6651C49.9742 56.4191 49.8361 56.0855 49.8361 55.7377C49.8361 55.3899 49.9742 55.0563 50.2202 54.8103C50.4661 54.5644 50.7997 54.4262 51.1475 54.4262H76.7213C77.0691 54.4262 77.4027 54.5644 77.6487 54.8103C77.8946 55.0563 78.0328 55.3899 78.0328 55.7377C78.0328 56.0855 77.8946 56.4191 77.6487 56.6651C77.4027 56.911 77.0691 57.0492 76.7213 57.0492Z" fill="#E31E25"/>
<path d="M37.541 57.0492H15.082C14.7341 57.0492 14.4006 56.911 14.1546 56.6651C13.9087 56.4191 13.7705 56.0855 13.7705 55.7377C13.7705 55.3899 13.9087 55.0563 14.1546 54.8103C14.4006 54.5644 14.7341 54.4262 15.082 54.4262H37.541C37.8888 54.4262 38.2224 54.5644 38.4683 54.8103C38.7143 55.0563 38.8525 55.3899 38.8525 55.7377C38.8525 56.0855 38.7143 56.4191 38.4683 56.6651C38.2224 56.911 37.8888 57.0492 37.541 57.0492Z" fill="#E31E25"/>
<path d="M62.8747 57.0492H56.8682C56.2272 57.0481 55.6129 56.793 55.1598 56.3396C54.7067 55.8863 54.4518 55.2718 54.4511 54.6308V50.0092C54.4511 49.6614 54.5893 49.3278 54.8353 49.0818C55.0812 48.8359 55.4148 48.6977 55.7626 48.6977C56.1104 48.6977 56.444 48.8359 56.69 49.0818C56.9359 49.3278 57.0741 49.6614 57.0741 50.0092V54.4262H62.6702V50.0092C62.6702 49.6614 62.8083 49.3278 63.0543 49.0818C63.3002 48.8359 63.6338 48.6977 63.9816 48.6977C64.3295 48.6977 64.663 48.8359 64.909 49.0818C65.1549 49.3278 65.2931 49.6614 65.2931 50.0092V54.6308C65.2924 55.272 65.0374 55.8867 64.584 56.3401C64.1306 56.7935 63.5159 57.0485 62.8747 57.0492Z" fill="#E31E25"/>
<path d="M34.779 57.0492H28.7711C28.1313 57.0464 27.5186 56.7905 27.067 56.3373C26.6153 55.8842 26.3613 55.2706 26.3607 54.6308V50.0092C26.3607 49.6614 26.4988 49.3278 26.7448 49.0818C26.9907 48.8359 27.3243 48.6977 27.6721 48.6977C28.02 48.6977 28.3535 48.8359 28.5995 49.0818C28.8454 49.3278 28.9836 49.6614 28.9836 50.0092V54.4262H34.5797V50.0092C34.5797 49.6614 34.7178 49.3278 34.9638 49.0818C35.2097 48.8359 35.5433 48.6977 35.8911 48.6977C36.239 48.6977 36.5725 48.8359 36.8185 49.0818C37.0644 49.3278 37.2026 49.6614 37.2026 50.0092V54.6308C37.2023 54.9487 37.1393 55.2635 37.0173 55.5571C36.8953 55.8507 36.7167 56.1174 36.4917 56.3419C36.2666 56.5665 35.9995 56.7445 35.7057 56.8659C35.4118 56.9872 35.0969 57.0495 34.779 57.0492Z" fill="#E31E25"/>
<path d="M66.6085 51.3206H25.0348C24.1203 51.3186 23.2439 50.9541 22.5977 50.3071C21.9514 49.6601 21.5879 48.7833 21.5869 47.8688V41.2984C21.5897 38.9898 22.5081 36.7766 24.1406 35.1443C25.7731 33.512 27.9865 32.5939 30.2951 32.5915H61.3534C63.6618 32.5942 65.8748 33.5125 67.5071 35.1447C69.1393 36.777 70.0576 38.99 70.0603 41.2984V47.8688C70.0593 48.784 69.6953 49.6614 69.0482 50.3085C68.4011 50.9556 67.5237 51.3196 66.6085 51.3206ZM30.2951 35.2144C28.6818 35.2158 27.135 35.8572 25.9942 36.9978C24.8533 38.1384 24.2116 39.6851 24.2098 41.2984V47.8688C24.2098 48.0887 24.2972 48.2995 24.4526 48.4549C24.608 48.6104 24.8189 48.6977 25.0387 48.6977H66.6125C66.8316 48.6967 67.0414 48.6089 67.196 48.4536C67.3506 48.2982 67.4374 48.088 67.4374 47.8688V41.2984C67.4356 39.6853 66.7941 38.1389 65.6535 36.9983C64.5129 35.8577 62.9665 35.2162 61.3534 35.2144H30.2951Z" fill="#E31E25"/>
<path d="M58.7843 46.3882C57.9653 46.3885 57.1647 46.1458 56.4837 45.6911C55.8026 45.2363 55.2717 44.5897 54.9582 43.8332C54.6446 43.0767 54.5624 42.2442 54.722 41.4409C54.8816 40.6377 55.2758 39.8998 55.8548 39.3207C56.4338 38.7415 57.1715 38.3471 57.9747 38.1872C58.7779 38.0273 59.6104 38.1092 60.3671 38.4226C61.1237 38.7359 61.7704 39.2666 62.2254 39.9475C62.6804 40.6284 62.9233 41.4289 62.9233 42.2479C62.9222 43.3454 62.4859 44.3977 61.7099 45.1739C60.934 45.9501 59.8818 46.3868 58.7843 46.3882ZM58.7843 40.7305C58.4841 40.7302 58.1906 40.819 57.9409 40.9856C57.6912 41.1521 57.4965 41.389 57.3814 41.6663C57.2664 41.9435 57.2362 42.2487 57.2946 42.5431C57.353 42.8375 57.4974 43.108 57.7095 43.3204C57.9217 43.5327 58.1921 43.6773 58.4864 43.736C58.7808 43.7946 59.086 43.7647 59.3633 43.6499C59.6407 43.5351 59.8777 43.3406 60.0445 43.091C60.2113 42.8415 60.3003 42.548 60.3003 42.2479C60.2996 41.8459 60.1397 41.4605 59.8556 41.1761C59.5715 40.8918 59.1863 40.7315 58.7843 40.7305Z" fill="#E31E25"/>
<path d="M32.863 46.3882C32.0441 46.3882 31.2436 46.1454 30.5627 45.6904C29.8818 45.2355 29.3512 44.5888 29.0378 43.8323C28.7244 43.0758 28.6424 42.2433 28.8022 41.4401C28.9619 40.637 29.3563 39.8992 29.9353 39.3202C30.5143 38.7412 31.2521 38.3468 32.0552 38.1871C32.8584 38.0273 33.6908 38.1093 34.4474 38.4227C35.2039 38.7361 35.8506 39.2667 36.3055 39.9476C36.7605 40.6285 37.0033 41.429 37.0033 42.2479C37.0022 43.3456 36.5657 44.3981 35.7895 45.1744C35.0132 45.9506 33.9607 46.3872 32.863 46.3882ZM32.863 40.7305C32.5628 40.7305 32.2695 40.8195 32.0199 40.9862C31.7704 41.1529 31.5759 41.3899 31.4611 41.6672C31.3462 41.9445 31.3162 42.2496 31.3747 42.5439C31.4333 42.8382 31.5778 43.1086 31.79 43.3208C32.0022 43.533 32.2726 43.6775 32.5669 43.7361C32.8613 43.7946 33.1664 43.7646 33.4436 43.6497C33.7209 43.5349 33.9579 43.3404 34.1246 43.0909C34.2913 42.8413 34.3803 42.548 34.3803 42.2479C34.38 41.8455 34.22 41.4598 33.9355 41.1753C33.651 40.8908 33.2653 40.7308 32.863 40.7305Z" fill="#E31E25"/>
<path d="M27.8426 35.6551C27.6332 35.6551 27.4268 35.6049 27.2408 35.5088C27.0547 35.4127 26.8943 35.2735 26.7731 35.1027C26.6519 34.9319 26.5734 34.7346 26.544 34.5272C26.5147 34.3199 26.5355 34.1085 26.6046 33.9108L29.5685 25.3967C29.5883 25.3401 29.612 25.2849 29.6393 25.2315C30.1865 24.1496 31.0233 23.2409 32.0565 22.6067C33.0898 21.9725 34.2788 21.6376 35.4911 21.6393H56.1534C57.3656 21.6378 58.5543 21.9728 59.5873 22.607C60.6203 23.2413 61.4569 24.1498 62.0039 25.2315C62.031 25.2846 62.0547 25.3393 62.0748 25.3954L65.0492 33.9095C65.164 34.238 65.1435 34.5987 64.9924 34.9121C64.8413 35.2256 64.5718 35.4662 64.2433 35.581C63.9148 35.6958 63.5541 35.6753 63.2406 35.5242C62.9272 35.3731 62.6866 35.1036 62.5718 34.7751L59.6262 26.3515C59.2914 25.7209 58.7913 25.1934 58.1795 24.8253C57.5678 24.4573 56.8674 24.2627 56.1534 24.2623H35.4911C34.7765 24.2616 34.0751 24.4556 33.4623 24.8234C32.8495 25.1913 32.3485 25.7191 32.0131 26.3502L29.082 34.7738C28.9926 35.0312 28.8252 35.2545 28.6031 35.4124C28.381 35.5703 28.1152 35.6552 27.8426 35.6551Z" fill="#E31E25"/>
<path d="M64.0551 35.7246C63.7073 35.7409 63.3672 35.6184 63.1097 35.3841C62.8522 35.1497 62.6983 34.8226 62.682 34.4748C62.6656 34.1269 62.7881 33.7869 63.0225 33.5293C63.2569 33.2718 63.584 33.118 63.9318 33.1016C64.7992 32.9897 65.6204 32.6459 66.3088 32.1065C66.9973 31.5671 67.5276 30.8521 67.8439 30.0367C67.9738 29.7139 68.2267 29.456 68.5468 29.3196C68.8669 29.1832 69.228 29.1796 69.5508 29.3095C69.8736 29.4394 70.1315 29.6922 70.2679 30.0123C70.4043 30.3324 70.4079 30.6936 70.278 31.0164C69.779 32.2758 68.949 33.377 67.8758 34.2037C66.8026 35.0303 65.526 35.5517 64.181 35.7128C64.1377 35.7233 64.0957 35.7246 64.0551 35.7246Z" fill="#E31E25"/>
<path d="M27.7482 35.7246C27.7075 35.7246 27.6656 35.7246 27.617 35.7246C26.272 35.5635 24.9954 35.0421 23.9222 34.2155C22.849 33.3888 22.019 32.2876 21.52 31.0282C21.3901 30.7054 21.3937 30.3442 21.5301 30.0241C21.6665 29.704 21.9244 29.4512 22.2472 29.3213C22.57 29.1914 22.9312 29.195 23.2513 29.3314C23.5714 29.4678 23.8242 29.7257 23.9541 30.0485C24.2704 30.8639 24.8007 31.5789 25.4892 32.1183C26.1777 32.6577 26.9988 33.0015 27.8662 33.1134C28.2141 33.1298 28.5411 33.2836 28.7755 33.5411C29.0099 33.7987 29.1324 34.1387 29.1161 34.4866C29.0997 34.8344 28.9459 35.1615 28.6884 35.3959C28.4308 35.6302 28.0908 35.7527 27.7429 35.7364L27.7482 35.7246Z" fill="#E31E25"/>
</svg>
