<svg width="60" height="80" viewBox="0 0 60 80" fill="none" xmlns="http://www.w3.org/2000/svg">
<path d="M54.8709 80H4.84114C3.55746 79.9985 2.3268 79.4878 1.4192 78.58C0.511609 77.6722 0.00120985 76.4414 0 75.1577V12.7657C0.00363189 11.4845 0.515391 10.257 1.42299 9.35258C2.33058 8.4482 3.55988 7.9408 4.84114 7.94171H30.176C30.7121 7.94008 31.2432 8.0448 31.7385 8.2498C32.2338 8.4548 32.6836 8.75601 33.0617 9.136L58.5166 34.592C58.8968 34.9698 59.1982 35.4193 59.4034 35.9145C59.6086 36.4096 59.7135 36.9406 59.712 37.4766V75.1577C59.7108 76.4414 59.2004 77.6722 58.2928 78.58C57.3852 79.4878 56.1545 79.9985 54.8709 80ZM4.84114 10.2274C4.1659 10.2259 3.51763 10.4923 3.03856 10.9682C2.55949 11.444 2.28874 12.0905 2.28571 12.7657V75.1577C2.28632 75.8354 2.55571 76.4851 3.03478 76.9644C3.51385 77.4437 4.16348 77.7134 4.84114 77.7143H54.8709C55.5485 77.7134 56.1982 77.4437 56.6772 76.9644C57.1563 76.4851 57.4257 75.8354 57.4263 75.1577V37.4766C57.427 37.2411 57.381 37.0079 57.291 36.7903C57.2009 36.5728 57.0686 36.3752 56.9017 36.2091L31.4457 10.752C31.2792 10.5851 31.0812 10.4528 30.8633 10.3628C30.6454 10.2727 30.4118 10.2267 30.176 10.2274H4.84114Z" fill="#E31E25"/>
<path d="M58.5691 71.4709H1.14286C0.839753 71.4709 0.549062 71.3505 0.334734 71.1361C0.120407 70.9218 0 70.6311 0 70.328C0 70.0249 0.120407 69.7342 0.334734 69.5199C0.549062 69.3055 0.839753 69.1851 1.14286 69.1851H58.5691C58.8722 69.1851 59.1629 69.3055 59.3773 69.5199C59.5916 69.7342 59.712 70.0249 59.712 70.328C59.712 70.6311 59.5916 70.9218 59.3773 71.1361C59.1629 71.3505 58.8722 71.4709 58.5691 71.4709Z" fill="#E31E25"/>
<path d="M58.2994 37.4034H1.14286C0.839753 37.4034 0.549062 37.283 0.334734 37.0687C0.120407 36.8544 0 36.5637 0 36.2606C0 35.9575 0.120407 35.6668 0.334734 35.4525C0.549062 35.2381 0.839753 35.1177 1.14286 35.1177H58.2994C58.6025 35.1177 58.8932 35.2381 59.1076 35.4525C59.3219 35.6668 59.4423 35.9575 59.4423 36.2606C59.4423 36.5637 59.3219 36.8544 59.1076 37.0687C58.8932 37.283 58.6025 37.4034 58.2994 37.4034Z" fill="#E31E25"/>
<path d="M56.5589 35.3931C56.2558 35.3931 55.9651 35.2727 55.7507 35.0584C55.5364 34.8441 55.416 34.5534 55.416 34.2503V17.5749C55.4145 16.088 54.8232 14.6624 53.7718 13.6111C52.7204 12.5597 51.2949 11.9684 49.808 11.9669H33.1326C32.8295 11.9669 32.5388 11.8464 32.3244 11.6321C32.1101 11.4178 31.9897 11.1271 31.9897 10.824C31.9897 10.5209 32.1101 10.2302 32.3244 10.0159C32.5388 9.80155 32.8295 9.68114 33.1326 9.68114H49.808C51.9009 9.68326 53.9075 10.5156 55.3874 11.9955C56.8673 13.4754 57.6996 15.482 57.7017 17.5749V34.2503C57.7017 34.5534 57.5813 34.8441 57.367 35.0584C57.1527 35.2727 56.862 35.3931 56.5589 35.3931Z" fill="#E31E25"/>
<path d="M51.2891 30.1234C50.986 30.1234 50.6953 30.003 50.481 29.7887C50.2667 29.5744 50.1463 29.2837 50.1463 28.9806V22.4377C50.1445 20.9782 49.5639 19.579 48.5319 18.547C47.4998 17.515 46.1006 16.9344 44.6411 16.9326H38.0983C37.7952 16.9326 37.5045 16.8122 37.2902 16.5978C37.0758 16.3835 36.9554 16.0928 36.9554 15.7897C36.9554 15.4866 37.0758 15.1959 37.2902 14.9816C37.5045 14.7673 37.7952 14.6469 38.0983 14.6469H44.6411C46.7067 14.6493 48.6869 15.4709 50.1474 16.9314C51.608 18.392 52.4296 20.3722 52.432 22.4377V28.9806C52.432 29.2837 52.3116 29.5744 52.0973 29.7887C51.8829 30.003 51.5922 30.1234 51.2891 30.1234Z" fill="#E31E25"/>
<path d="M22.3909 10.2274C22.0878 10.2274 21.7971 10.107 21.5827 9.89269C21.3684 9.67837 21.248 9.38768 21.248 9.08457V3.18057C21.2474 2.94343 21.1529 2.71617 20.9852 2.54848C20.8175 2.38079 20.5903 2.28632 20.3531 2.28571H8.95657C8.71942 2.28632 8.49216 2.38079 8.32448 2.54848C8.15679 2.71617 8.06232 2.94343 8.06171 3.18057V9.08457C8.06171 9.38768 7.9413 9.67837 7.72698 9.89269C7.51265 10.107 7.22196 10.2274 6.91886 10.2274C6.61575 10.2274 6.32506 10.107 6.11073 9.89269C5.89641 9.67837 5.776 9.38768 5.776 9.08457V3.18057C5.77721 2.3374 6.11269 1.52911 6.7089 0.932904C7.30511 0.336693 8.1134 0.00120928 8.95657 0H20.3531C21.1963 0.00120928 22.0046 0.336693 22.6008 0.932904C23.197 1.52911 23.5325 2.3374 23.5337 3.18057V9.08457C23.5337 9.38768 23.4133 9.67837 23.199 9.89269C22.9847 10.107 22.694 10.2274 22.3909 10.2274Z" fill="#E31E25"/>
<path d="M29.856 63.5794C27.9163 63.5758 26.0571 62.8032 24.686 61.4311C23.3149 60.059 22.5438 58.1992 22.5417 56.2594C22.5417 52.5897 28.2766 44.4103 28.9303 43.4891C29.0412 43.3482 29.1826 43.2342 29.344 43.1559C29.5053 43.0775 29.6824 43.0368 29.8617 43.0368C30.0411 43.0368 30.2181 43.0775 30.3794 43.1559C30.5408 43.2342 30.6822 43.3482 30.7931 43.4891C31.4469 44.4103 37.1817 52.5897 37.1817 56.2594C37.1796 58.2012 36.4069 60.0627 35.0334 61.4351C33.6598 62.8076 31.7977 63.5788 29.856 63.5794ZM29.856 46.1714C27.6126 49.5211 24.8217 54.3269 24.8217 56.264C24.8217 57.5992 25.3521 58.8797 26.2962 59.8238C27.2403 60.7679 28.5208 61.2983 29.856 61.2983C31.1912 61.2983 32.4717 60.7679 33.4158 59.8238C34.3599 58.8797 34.8903 57.5992 34.8903 56.264C34.8903 54.3223 32.0994 49.5166 29.856 46.1714Z" fill="#E31E25"/>
</svg>
