<svg width="80" height="80" viewBox="0 0 80 80" fill="none" xmlns="http://www.w3.org/2000/svg">
<path d="M40 80C32.0888 80 24.3552 77.654 17.7772 73.2588C11.1992 68.8635 6.07234 62.6164 3.04484 55.3073C0.0173314 47.9983 -0.774802 39.9556 0.768607 32.1964C2.31202 24.4372 6.12165 17.3098 11.7157 11.7157C17.3098 6.12165 24.4372 2.31202 32.1964 0.768607C39.9556 -0.774802 47.9983 0.0173314 55.3073 3.04484C62.6164 6.07234 68.8635 11.1992 73.2588 17.7772C77.654 24.3552 80 32.0888 80 40C79.9879 50.605 75.7697 60.7721 68.2709 68.2709C60.7721 75.7697 50.605 79.9879 40 80ZM40 2.28573C32.5408 2.28573 25.2492 4.49764 19.0471 8.64173C12.845 12.7858 8.01106 18.676 5.15656 25.5674C2.30206 32.4588 1.55519 40.0418 3.0104 47.3577C4.46561 54.6736 8.05755 61.3936 13.332 66.668C18.6064 71.9425 25.3265 75.5344 32.6423 76.9896C39.9582 78.4448 47.5413 77.698 54.4326 74.8435C61.324 71.989 67.2142 67.155 71.3583 60.9529C75.5024 54.7509 77.7143 47.4592 77.7143 40C77.7028 30.0011 73.7256 20.415 66.6553 13.3447C59.585 6.27437 49.9989 2.29723 40 2.28573Z" fill="#E31E25"/>
<path d="M40 72C33.671 72 27.4841 70.1232 22.2218 66.607C16.9594 63.0908 12.8579 58.0931 10.4359 52.2459C8.01387 46.3986 7.38016 39.9645 8.61489 33.7571C9.84961 27.5497 12.8973 21.8479 17.3726 17.3726C21.8479 12.8973 27.5497 9.84961 33.7571 8.61489C39.9645 7.38016 46.3986 8.01387 52.2459 10.4359C58.0931 12.8579 63.0908 16.9594 66.607 22.2218C70.1232 27.4841 72 33.671 72 40C71.9903 48.484 68.6158 56.6177 62.6167 62.6167C56.6177 68.6158 48.484 71.9903 40 72ZM40 10.2857C34.1231 10.2857 28.3781 12.0284 23.4916 15.2935C18.6052 18.5585 14.7966 23.1993 12.5476 28.6288C10.2986 34.0584 9.71015 40.033 10.8567 45.797C12.0032 51.561 14.8332 56.8556 18.9888 61.0112C23.1445 65.1668 28.439 67.9968 34.203 69.1433C39.967 70.2899 45.9416 69.7014 51.3712 67.4524C56.8007 65.2034 61.4415 61.3949 64.7065 56.5084C67.9716 51.6219 69.7143 45.8769 69.7143 40C69.7055 32.122 66.5721 24.5691 61.0015 18.9985C55.4309 13.4279 47.878 10.2945 40 10.2857Z" fill="#E31E25"/>
<path d="M45.2903 71.5429C44.9955 71.5431 44.712 71.4295 44.4991 71.2257C44.2861 71.0219 44.1601 70.7437 44.1474 70.4492C43.8742 63.4761 46.3471 56.6741 51.0347 51.5046C55.7224 46.3351 62.2507 43.2105 69.2171 42.8023L70.5371 42.7223C70.8403 42.704 71.1382 42.8068 71.3655 43.0081C71.5928 43.2095 71.7308 43.4929 71.7491 43.796C71.7675 44.0991 71.6647 44.3971 71.4633 44.6244C71.2619 44.8517 70.9785 44.9897 70.6754 45.008L69.3497 45.088C62.983 45.4602 57.0162 48.3148 52.7312 53.0385C48.4463 57.7622 46.185 63.9781 46.4332 70.3509C46.4462 70.6537 46.3384 70.9492 46.1335 71.1725C45.9286 71.3959 45.6434 71.5287 45.3406 71.5417L45.2903 71.5429Z" fill="#E31E25"/>
<path d="M34.7097 71.5429H34.6594C34.3566 71.5298 34.0714 71.397 33.8665 71.1737C33.6617 70.9504 33.5539 70.6548 33.5669 70.352C33.8169 63.9794 31.5573 57.763 27.2736 53.0384C22.9898 48.3137 17.0237 45.458 10.6572 45.0846L9.32459 45.0034C9.02148 44.9851 8.73808 44.8471 8.53672 44.6198C8.33536 44.3925 8.23254 44.0945 8.25087 43.7914C8.26921 43.4883 8.40721 43.2049 8.6345 43.0036C8.86179 42.8022 9.15977 42.6994 9.46287 42.7177L10.7886 42.7977C17.7544 43.208 24.2815 46.334 28.9675 51.5043C33.6536 56.6746 36.1248 63.4766 35.8503 70.4492C35.8376 70.7433 35.712 71.0211 35.4995 71.2249C35.287 71.4286 35.0041 71.5425 34.7097 71.5429Z" fill="#E31E25"/>
<path d="M40 47.4286C34.5554 47.4286 30.1269 44.096 30.1269 40C30.1269 35.904 34.5554 32.5714 40 32.5714C45.4446 32.5714 49.8732 35.904 49.8732 40C49.8732 44.096 45.4446 47.4286 40 47.4286ZM40 34.8572C35.8172 34.8572 32.4126 37.1646 32.4126 40C32.4126 42.8354 35.8172 45.1429 40 45.1429C44.1829 45.1429 47.5874 42.8354 47.5874 40C47.5874 37.1646 44.1829 34.8572 40 34.8572Z" fill="#E31E25"/>
<path d="M69.0857 30.8572H62.0994C56.8893 30.9308 51.7476 29.6652 47.1669 27.1817C44.9535 26.03 42.4951 25.4286 40 25.4286C37.5049 25.4286 35.0465 26.03 32.8332 27.1817C28.2524 29.6652 23.1107 30.9308 17.9006 30.8572H10.9143C10.6112 30.8572 10.3205 30.7367 10.1062 30.5224C9.89185 30.3081 9.77144 30.0174 9.77144 29.7143C9.77144 29.4112 9.89185 29.1205 10.1062 28.9062C10.3205 28.6918 10.6112 28.5714 10.9143 28.5714H17.9006C22.7174 28.6446 27.4725 27.4806 31.7109 25.1909C34.2529 23.8096 37.1072 23.1044 40 23.1429C42.8929 23.1044 45.7471 23.8096 48.2891 25.1909C52.5276 27.4806 57.2826 28.6446 62.0994 28.5714H69.0857C69.3888 28.5714 69.6795 28.6918 69.8938 28.9062C70.1082 29.1205 70.2286 29.4112 70.2286 29.7143C70.2286 30.0174 70.1082 30.3081 69.8938 30.5224C69.6795 30.7367 69.3888 30.8572 69.0857 30.8572Z" fill="#E31E25"/>
<path d="M61.7143 46.6754C61.4529 46.6752 61.1994 46.5853 60.9962 46.4208C60.793 46.2563 60.6524 46.0271 60.5977 45.7714L57.1691 29.7394C57.1058 29.443 57.1628 29.1335 57.3276 28.8791C57.4924 28.6247 57.7516 28.4462 58.048 28.3829C58.3444 28.3195 58.6539 28.3765 58.9083 28.5413C59.1627 28.7062 59.3412 28.9653 59.4046 29.2617L62.8331 45.2937C62.8688 45.4604 62.8667 45.633 62.827 45.7987C62.7873 45.9645 62.711 46.1193 62.6037 46.2518C62.4964 46.3843 62.3609 46.4911 62.207 46.5644C62.0531 46.6377 61.8848 46.6756 61.7143 46.6754Z" fill="#E31E25"/>
<path d="M18.2857 46.6754C18.1153 46.6756 17.9469 46.6377 17.793 46.5644C17.6391 46.4911 17.5036 46.3843 17.3963 46.2518C17.289 46.1193 17.2128 45.9645 17.1731 45.7987C17.1334 45.633 17.1312 45.4604 17.1669 45.2937L20.5954 29.2617C20.6588 28.9653 20.8373 28.7062 21.0917 28.5413C21.3461 28.3765 21.6556 28.3195 21.952 28.3829C22.2485 28.4462 22.5076 28.6247 22.6724 28.8791C22.8372 29.1335 22.8942 29.443 22.8309 29.7394L19.4023 45.7714C19.3477 46.0271 19.207 46.2563 19.0038 46.4208C18.8006 46.5853 18.5472 46.6752 18.2857 46.6754Z" fill="#E31E25"/>
<path d="M46.1029 64H33.8972C33.594 64 33.3034 63.8796 33.089 63.6653C32.8747 63.4509 32.7543 63.1603 32.7543 62.8572C32.7543 62.554 32.8747 62.2634 33.089 62.049C33.3034 61.8347 33.594 61.7143 33.8972 61.7143H46.1029C46.406 61.7143 46.6967 61.8347 46.911 62.049C47.1253 62.2634 47.2457 62.554 47.2457 62.8572C47.2457 63.1603 47.1253 63.4509 46.911 63.6653C46.6967 63.8796 46.406 64 46.1029 64Z" fill="#E31E25"/>
</svg>
