<svg width="86" height="75" viewBox="0 0 86 75" fill="none" xmlns="http://www.w3.org/2000/svg">
<path d="M50.2441 71.4965V69.0396C57.6593 69.0412 64.8628 66.5671 70.7122 62.0097C76.5616 57.4523 80.722 51.0725 82.5337 43.882C84.3454 36.6915 83.7046 29.102 80.713 22.317C77.7213 15.5321 72.5501 9.94014 66.0194 6.428C59.4887 2.91586 51.9723 1.6846 44.6624 2.92946C37.3524 4.17433 30.6673 7.82407 25.6672 13.2999C20.6671 18.7757 17.6383 25.7641 17.061 33.1568C16.4838 40.5495 18.3912 47.9233 22.4808 54.1088L20.4342 55.4675C16.0419 48.8259 13.9927 40.9079 14.6117 32.9694C15.2307 25.0308 18.4824 17.5262 23.8511 11.6456C29.2197 5.76506 36.3981 1.84526 44.2476 0.507878C52.0971 -0.829503 60.1685 0.492101 67.1816 4.26309C74.1947 8.03407 79.748 14.0386 82.9608 21.3242C86.1737 28.6099 86.8621 36.7598 84.9169 44.4811C82.9717 52.2025 78.5043 59.0535 72.2231 63.9474C65.942 68.8414 58.2067 71.4982 50.2441 71.4965Z" fill="#E31E25"/>
<path d="M50.2477 71.4965H5.78482V53.5597H50.2477V56.0166H8.24174V69.0396H50.2477V71.4965Z" fill="#E31E25"/>
<path d="M50.1507 55.9196C46.1619 55.9196 42.2626 54.7368 38.946 52.5207C35.6294 50.3045 33.0445 47.1547 31.5181 43.4695C29.9917 39.7843 29.5924 35.7292 30.3707 31.817C31.1489 27.9048 33.0698 24.3113 35.8904 21.4908C38.7111 18.6704 42.3047 16.7497 46.2169 15.9717C50.1292 15.1936 54.1842 15.5932 57.8694 17.1198C61.5545 18.6465 64.7042 21.2316 66.9201 24.5483C69.136 27.865 70.3186 31.7643 70.3183 35.7532C70.3125 41.1001 68.1858 46.2263 64.4048 50.007C60.6239 53.7877 55.4976 55.9141 50.1507 55.9196ZM50.1507 18.0425C46.6478 18.0425 43.2236 19.0812 40.3111 21.0272C37.3986 22.9733 35.1286 25.7394 33.7881 28.9756C32.4476 32.2118 32.0969 35.7728 32.7803 39.2084C33.4636 42.6439 35.1504 45.7997 37.6273 48.2766C40.1042 50.7534 43.26 52.4402 46.6955 53.1236C50.131 53.807 53.6921 53.4562 56.9283 52.1157C60.1645 50.7753 62.9305 48.5052 64.8766 45.5927C66.8227 42.6802 67.8614 39.256 67.8614 35.7532C67.8562 31.0576 65.9886 26.5558 62.6683 23.2356C59.348 19.9153 54.8463 18.0477 50.1507 18.0425Z" fill="#E31E25"/>
<path d="M50.1507 39.5467C49.4002 39.5464 48.6666 39.3236 48.0427 38.9065C47.4188 38.4893 46.9326 37.8965 46.6456 37.203C46.3586 36.5095 46.2837 35.7465 46.4304 35.0104C46.577 34.2744 46.9386 33.5983 47.4695 33.0678C48.0004 32.5373 48.6767 32.1761 49.4128 32.0299C50.149 31.8837 50.9119 31.9591 51.6052 32.2466C52.2985 32.534 52.891 33.0206 53.3078 33.6447C53.7246 34.2689 53.9469 35.0027 53.9466 35.7532C53.9457 36.7594 53.5453 37.7241 52.8336 38.4354C52.1219 39.1466 51.1569 39.5463 50.1507 39.5467ZM50.1507 34.4154C49.8862 34.4156 49.6276 34.4943 49.4078 34.6414C49.188 34.7886 49.0167 34.9976 48.9156 35.2421C48.8145 35.4865 48.7882 35.7555 48.84 36.0149C48.8917 36.2743 49.0192 36.5126 49.2064 36.6996C49.3935 36.8865 49.6319 37.0138 49.8914 37.0654C50.1509 37.1169 50.4198 37.0903 50.6642 36.989C50.9085 36.8877 51.1174 36.7163 51.2643 36.4963C51.4113 36.2763 51.4897 36.0177 51.4897 35.7532C51.4894 35.3983 51.3482 35.058 51.0971 34.8071C50.846 34.5563 50.5056 34.4154 50.1507 34.4154Z" fill="#E31E25"/>
<path d="M50.1507 51.163C47.1026 51.163 44.123 50.2591 41.5886 48.5657C39.0543 46.8722 37.079 44.4653 35.9126 41.6492C34.7462 38.8331 34.4411 35.7344 35.0359 32.745C35.6306 29.7555 37.0985 27.0095 39.2539 24.8543C41.4093 22.699 44.1554 21.2314 47.1449 20.6369C50.1344 20.0424 53.2331 20.3477 56.0491 21.5144C58.8651 22.681 61.2719 24.6564 62.9651 27.1909C64.6583 29.7254 65.562 32.7051 65.5617 35.7532C65.5572 39.8389 63.932 43.756 61.0428 46.645C58.1537 49.5339 54.2364 51.1588 50.1507 51.163ZM50.1507 22.7991C47.5886 22.7991 45.0841 23.5588 42.9538 24.9822C40.8235 26.4056 39.1631 28.4288 38.1826 30.7959C37.2022 33.1629 36.9456 35.7675 37.4455 38.2804C37.9453 40.7933 39.1791 43.1015 40.9907 44.9131C42.8024 46.7248 45.1106 47.9586 47.6235 48.4584C50.1363 48.9582 52.741 48.7017 55.108 47.7212C57.4751 46.7408 59.4982 45.0804 60.9216 42.9501C62.3451 40.8198 63.1048 38.3153 63.1048 35.7532C63.1012 32.3186 61.7353 29.0258 59.3067 26.5972C56.8781 24.1686 53.5852 22.8026 50.1507 22.7991Z" fill="#E31E25"/>
<path d="M48.9161 38.3145H51.373V49.9296H48.9161V38.3145Z" fill="#E31E25"/>
<path d="M48.9161 21.5767H51.373V33.1918H48.9161V21.5767Z" fill="#E31E25"/>
<path d="M35.9779 34.5149H47.593V36.9718H35.9779V34.5149Z" fill="#E31E25"/>
<path d="M52.7157 34.5149H64.3296V36.9718H52.7157V34.5149Z" fill="#E31E25"/>
<path d="M39.2484 26.5962L40.9855 24.8591L49.2025 33.0762L47.4655 34.8132L39.2484 26.5962Z" fill="#E31E25"/>
<path d="M51.086 38.4361L52.8231 36.699L61.0402 44.9161L59.3031 46.6532L51.086 38.4361Z" fill="#E31E25"/>
<path d="M51.0872 33.0758L59.3043 24.8587L61.0413 26.5957L52.8242 34.8128L51.0872 33.0758Z" fill="#E31E25"/>
<path d="M39.2481 44.9125L47.4652 36.6954L49.2023 38.4325L40.9852 46.6496L39.2481 44.9125Z" fill="#E31E25"/>
<path d="M4.12026 74.7802C3.02778 74.7785 1.98054 74.3437 1.20816 73.5711C0.435775 72.7985 0.00129974 71.7512 0 70.6587V54.47C0.0186581 53.3894 0.461024 52.3594 1.23181 51.6018C2.00259 50.8442 3.04011 50.4197 4.12087 50.4197C5.20163 50.4197 6.23915 50.8442 7.00994 51.6018C7.78072 52.3594 8.22309 53.3894 8.24174 54.47V70.6587C8.24044 71.7514 7.8058 72.7989 7.03315 73.5716C6.26051 74.3442 5.21294 74.7789 4.12026 74.7802ZM4.12026 52.8116C3.68006 52.8119 3.25792 52.9866 2.94619 53.2974C2.63447 53.6082 2.45855 54.0298 2.45692 54.47V70.6587C2.45088 70.881 2.48945 71.1023 2.57036 71.3094C2.65126 71.5166 2.77286 71.7054 2.92797 71.8648C3.08308 72.0242 3.26855 72.1509 3.47344 72.2374C3.67833 72.3239 3.89847 72.3685 4.12087 72.3685C4.34327 72.3685 4.56342 72.3239 4.7683 72.2374C4.97319 72.1509 5.15867 72.0242 5.31378 71.8648C5.46889 71.7054 5.59048 71.5166 5.67139 71.3094C5.75229 71.1023 5.79086 70.881 5.78482 70.6587V54.47C5.7832 54.0296 5.60711 53.6078 5.29512 53.297C4.98313 52.9861 4.56067 52.8116 4.12026 52.8116Z" fill="#E31E25"/>
</svg>
