<svg width="84" height="80" viewBox="0 0 84 80" fill="none" xmlns="http://www.w3.org/2000/svg">
<path d="M41.9483 73.3372C31.2488 73.3372 20.5157 72.8929 9.81499 72.002C8.01704 71.8392 6.34497 71.0164 5.12585 69.6947C3.90673 68.3731 3.22828 66.6475 3.22319 64.8556V53.1474C3.18873 51.0424 3.63421 48.957 4.52634 47.0471C5.41846 45.1371 6.73414 43.4521 8.37495 42.1181L2.87758 40.74C2.34084 40.6062 1.83996 40.3578 1.40991 40.0121C0.979847 39.6664 0.630963 39.2317 0.387591 38.7384C0.14422 38.2451 0.0122228 37.705 0.000809209 37.1559C-0.0106044 36.6067 0.0988402 36.0617 0.321508 35.5588C0.831927 34.4212 1.66339 33.4546 2.7154 32.7759C3.76742 32.0972 4.99496 31.7354 6.24968 31.7343H11.5766C12.3237 31.8176 13.0424 32.0661 13.68 32.4614C14.3176 32.8568 14.8577 33.3889 15.2607 34.0188L19.1981 27.6204C20.3422 25.7778 21.9403 24.2548 23.8416 23.1949C25.743 22.1351 27.8849 21.5733 30.0656 21.5626H53.9331C56.1134 21.5734 58.2551 22.1351 60.1562 23.1947C62.0573 24.2543 63.6553 25.777 64.7994 27.6192L68.7355 34.0164C69.1261 33.3967 69.6505 32.8708 70.2708 32.4768C70.8911 32.0827 71.5919 31.8304 72.3224 31.7379H77.7478C79.0007 31.7383 80.2267 32.0984 81.2781 32.7746C82.3294 33.4509 83.1614 34.4145 83.6736 35.5493C83.8849 36.0321 83.996 36.5523 84 37.0787C84.0023 37.9212 83.7198 38.7401 83.1976 39.4043C82.6755 40.0686 81.9438 40.5398 81.1199 40.7424L75.5829 42.1276L75.6717 42.205C77.1981 43.5832 78.4126 45.2671 79.2349 47.1455C80.0571 49.024 80.4685 51.0542 80.4419 53.1021V64.8472C80.4367 66.6395 79.758 68.3654 78.5383 69.6872C77.3187 71.0089 75.6461 71.8314 73.8477 71.9936C63.3054 72.8929 52.6431 73.3372 41.9483 73.3372ZM11.4602 34.1105L6.24728 34.1165C5.45825 34.118 4.68646 34.3458 4.02478 34.7724C3.3631 35.199 2.83971 35.8063 2.51757 36.5212C2.43627 36.7078 2.39694 36.9098 2.40233 37.113C2.40772 37.3163 2.45769 37.5159 2.54877 37.698C2.63654 37.8795 2.76393 38.0393 2.92169 38.1658C3.07945 38.2923 3.26361 38.3823 3.4608 38.4293L11.741 40.497C11.9877 40.5579 12.2084 40.695 12.3715 40.8884C12.5346 41.0819 12.6316 41.3217 12.6485 41.5734C12.6655 41.8251 12.6015 42.0756 12.4658 42.2888C12.3301 42.5021 12.1297 42.6671 11.8935 42.76C11.4201 42.9506 10.9706 43.1953 10.5542 43.489C8.99613 44.5721 7.7313 46.02 6.87181 47.7043C6.01232 49.3887 5.58471 51.2574 5.62687 53.145V64.8532C5.6277 66.0493 6.07831 67.202 6.89047 68.0856C7.70263 68.9692 8.81786 69.5202 10.0178 69.6306C31.1913 71.4005 52.4773 71.4005 73.6509 69.6306C74.8514 69.5208 75.9673 68.9701 76.7802 68.0864C77.593 67.2028 78.0442 66.0497 78.0454 64.8532V53.1021C78.0723 51.3912 77.7332 49.6941 77.0506 48.1228C76.3679 46.5516 75.3573 45.1419 74.0853 43.9868C73.5469 43.4683 72.9113 43.0596 72.2144 42.7839C71.9655 42.7057 71.7491 42.5491 71.598 42.3378C71.4468 42.1265 71.3692 41.872 71.377 41.613C71.3847 41.354 71.4773 41.1046 71.6408 40.9025C71.8043 40.7005 72.0297 40.5569 72.2828 40.4934L80.5415 38.4269C80.8427 38.3489 81.1096 38.1746 81.3009 37.9308C81.4923 37.6871 81.5973 37.3876 81.5999 37.0787C81.5973 36.8788 81.554 36.6815 81.4727 36.4986C81.1486 35.7889 80.6255 35.1868 79.9657 34.7643C79.306 34.3419 78.5377 34.117 77.7526 34.1165H72.422C72.3344 34.1331 70.5488 34.4047 70.2008 36.9119C70.167 37.1553 70.0582 37.3825 69.8893 37.5621C69.7204 37.7418 69.4996 37.8652 69.2572 37.9154C69.0148 37.9656 68.7628 37.9402 68.5355 37.8427C68.3083 37.7451 68.117 37.5802 67.9879 37.3705L62.7594 28.8627C61.8308 27.3671 60.5338 26.1308 58.9907 25.2704C57.4475 24.41 55.709 23.9538 53.9391 23.9447H30.0632C28.2931 23.9537 26.5544 24.41 25.0113 25.2706C23.4681 26.1313 22.1712 27.3679 21.2429 28.8638L16.0084 37.3705C15.8793 37.5802 15.688 37.7451 15.4608 37.8427C15.2335 37.9402 14.9814 37.9656 14.7391 37.9154C14.4967 37.8652 14.2759 37.7418 14.107 37.5621C13.9381 37.3825 13.8293 37.1553 13.7955 36.9119C13.4475 34.4023 11.6618 34.1331 11.4602 34.1105Z" fill="#E31E25"/>
<path d="M61.7813 43.2686H22.2162C21.8224 43.2689 21.4354 43.1668 21.0938 42.9725C20.7521 42.7782 20.4677 42.4985 20.2687 42.1612C20.0698 41.8239 19.9633 41.4408 19.9599 41.05C19.9565 40.6592 20.0563 40.2743 20.2493 39.9336L25.1694 31.2329C25.7165 30.2672 26.5125 29.4633 27.4758 28.9036C28.4391 28.3439 29.535 28.0486 30.6512 28.048H53.3427C54.4589 28.0486 55.5548 28.3439 56.5181 28.9036C57.4814 29.4633 58.2774 30.2672 58.8244 31.2329L63.7446 39.9277C63.9376 40.2683 64.0374 40.6532 64.0339 41.044C64.0305 41.4348 63.9241 41.818 63.7252 42.1552C63.5262 42.4925 63.2418 42.7722 62.9001 42.9665C62.5585 43.1608 62.1715 43.2629 61.7777 43.2627L61.7813 43.2686ZM22.4646 40.8865H61.5329L56.7328 32.4025C56.3943 31.8058 55.9021 31.309 55.3067 30.9631C54.7112 30.6171 54.0338 30.4344 53.3439 30.4337H30.6548C29.9648 30.4342 29.2873 30.6168 28.6918 30.9628C28.0963 31.3087 27.6042 31.8056 27.2659 32.4025L22.4646 40.8865Z" fill="#E31E25"/>
<path d="M51.2558 62.022H32.8005C32.0714 62.0253 31.3611 61.7932 30.7766 61.3607C30.1922 60.9282 29.7653 60.3188 29.5604 59.6244L28.8896 57.3899C28.7365 56.8806 28.7054 56.3429 28.7987 55.8196C28.8921 55.2962 29.1073 54.8018 29.4273 54.3756C29.7472 53.9494 30.163 53.6033 30.6416 53.3648C31.1201 53.1263 31.6482 53.0021 32.1836 53.002H51.8726C52.408 53.0024 52.936 53.1268 53.4144 53.3653C53.8928 53.6038 54.3085 53.9499 54.6284 54.3761C54.9483 54.8022 55.1635 55.2965 55.257 55.8198C55.3504 56.343 55.3195 56.8807 55.1667 57.3899L54.4971 59.6184C54.2872 60.3107 53.8591 60.9178 53.2756 61.3504C52.6921 61.7831 51.9841 62.0185 51.2558 62.022ZM32.1836 55.3889C32.0222 55.3894 31.863 55.4272 31.7188 55.4993C31.5746 55.5714 31.4492 55.6759 31.3527 55.8044C31.2562 55.9329 31.1911 56.0819 31.1627 56.2397C31.1342 56.3975 31.1432 56.5597 31.1888 56.7134L31.8584 58.9383C31.9182 59.1401 32.0424 59.3171 32.2123 59.4428C32.3822 59.5684 32.5886 59.6359 32.8005 59.6351H51.2558C51.4675 59.6344 51.6733 59.5664 51.8431 59.441C52.0129 59.3156 52.1377 59.1394 52.199 58.9383L52.8687 56.7087C52.9143 56.5549 52.9232 56.3927 52.8948 56.2349C52.8664 56.0772 52.8013 55.9281 52.7048 55.7996C52.6083 55.6711 52.4829 55.5667 52.3387 55.4946C52.1945 55.4225 52.0353 55.3847 51.8738 55.3842L32.1836 55.3889Z" fill="#E31E25"/>
<path d="M22.6782 61.7266C22.4468 61.7262 22.2165 61.6961 21.9929 61.6373L13.4727 59.3207C12.8286 59.1533 12.2248 58.8597 11.6967 58.4574C11.1685 58.055 10.7268 57.5519 10.3974 56.9776C10.068 56.4033 9.85767 55.7695 9.77866 55.1134C9.69966 54.4572 9.75363 53.792 9.93739 53.1569C10.257 52.0533 10.9284 51.0823 11.851 50.3893C12.7735 49.6964 13.8974 49.3188 15.0543 49.3133C15.4777 49.3183 15.8992 49.3707 16.3108 49.4693L17.0308 49.6754C18.9017 50.1471 20.6137 51.1013 21.9934 52.4412C23.3731 53.7811 24.3715 55.4592 24.8874 57.3054L25.1994 58.4178C25.307 58.8044 25.3235 59.2103 25.2476 59.6042C25.1717 59.9981 25.0055 60.3694 24.7619 60.6893C24.5182 61.0092 24.2036 61.2692 23.8425 61.4491C23.4814 61.6289 23.0822 61.7239 22.6782 61.7266ZM15.0507 51.6954C14.4147 51.7003 13.7974 51.9096 13.2913 52.292C12.7852 52.6745 12.4177 53.2095 12.2439 53.8167C12.1477 54.1469 12.1192 54.4927 12.16 54.834C12.2008 55.1752 12.31 55.5049 12.4813 55.8035C12.6525 56.1022 12.8823 56.3637 13.1571 56.5728C13.4319 56.7819 13.7461 56.9342 14.0811 57.0207H14.0967L22.617 59.3362C22.6552 59.3446 22.6949 59.3431 22.7324 59.3319C22.7698 59.3207 22.8038 59.3001 22.8309 59.2721C22.858 59.2441 22.8774 59.2097 22.8872 59.1721C22.8971 59.1345 22.897 59.095 22.887 59.0574L22.575 57.9438C22.1693 56.4975 21.385 55.1835 20.3018 54.1356C19.2186 53.0877 17.8751 52.3432 16.408 51.9777L15.7144 51.7788C15.4974 51.7289 15.2758 51.701 15.0531 51.6954H15.0507Z" fill="#E31E25"/>
<path d="M61.3193 61.7254C60.9152 61.7231 60.5171 61.6285 60.1559 61.4488C59.7946 61.2692 59.4799 61.0093 59.2362 60.6894C58.9925 60.3695 58.8263 59.9982 58.7505 59.6043C58.6747 59.2103 58.6914 58.8043 58.7992 58.4178L59.1112 57.3042C59.6312 55.4518 60.636 53.7691 62.0236 52.427C63.4111 51.085 65.1319 50.1315 67.0111 49.6635L67.6183 49.4884C68.0527 49.3789 68.4986 49.3201 68.9467 49.3133C70.1041 49.3191 71.2283 49.697 72.1511 50.3904C73.0738 51.0837 73.7453 52.0552 74.0649 53.1593C74.2483 53.7943 74.3019 54.4594 74.2226 55.1153C74.1434 55.7712 73.9328 56.4048 73.6034 56.9788C73.2739 57.5528 72.8322 58.0557 72.3041 58.4579C71.776 58.86 71.1723 59.1534 70.5284 59.3207L62.0141 61.6349C61.7874 61.6946 61.5539 61.725 61.3193 61.7254ZM68.9467 51.6954C68.6995 51.7021 68.4536 51.7353 68.2135 51.7943L67.6351 51.9634C66.1596 52.3253 64.8072 53.0693 63.7162 54.1195C62.6251 55.1698 61.8344 56.4886 61.4249 57.9414L61.1129 59.0551C61.1004 59.0934 61.0992 59.1345 61.1094 59.1736C61.1196 59.2126 61.1408 59.2479 61.1705 59.2754C61.1976 59.305 61.2327 59.3263 61.2717 59.3366C61.3106 59.347 61.3517 59.346 61.3901 59.3338L69.9032 57.0219H69.9188C70.2543 56.9357 70.569 56.7837 70.8442 56.5747C71.1195 56.3658 71.3498 56.1041 71.5214 55.8053C71.693 55.5065 71.8025 55.1765 71.8435 54.835C71.8844 54.4934 71.8559 54.1472 71.7596 53.8167C71.5852 53.2082 71.2164 52.6723 70.7087 52.2898C70.2009 51.9072 69.5818 51.6986 68.9443 51.6954H68.9467Z" fill="#E31E25"/>
<path d="M73.7997 80H66.5047C65.5462 79.9987 64.6274 79.6202 63.9498 78.9474C63.2722 78.2747 62.8911 77.3626 62.8902 76.4113V71.5113C62.8902 71.1954 63.0166 70.8924 63.2416 70.669C63.4667 70.4457 63.7719 70.3202 64.0902 70.3202C64.4085 70.3202 64.7137 70.4457 64.9388 70.669C65.1638 70.8924 65.2902 71.1954 65.2902 71.5113V76.4113C65.2906 76.731 65.4186 77.0375 65.6462 77.2637C65.8739 77.4899 66.1826 77.6172 66.5047 77.6179H73.7997C74.1219 77.6172 74.4307 77.4899 74.6586 77.2638C74.8864 77.0376 75.0147 76.7311 75.0153 76.4113V70.0474C75.0153 69.7315 75.1418 69.4286 75.3668 69.2052C75.5919 68.9818 75.8971 68.8564 76.2154 68.8564C76.5336 68.8564 76.8389 68.9818 77.0639 69.2052C77.289 69.4286 77.4154 69.7315 77.4154 70.0474V76.4113C77.4141 77.3627 77.0328 78.2748 76.355 78.9475C75.6772 79.6202 74.7582 79.9987 73.7997 80Z" fill="#E31E25"/>
<path d="M17.4928 80H10.1978C9.23841 80 8.31825 79.6221 7.63941 78.9492C6.96057 78.2763 6.57856 77.3635 6.57729 76.4113V70.0474C6.57729 69.7315 6.70372 69.4286 6.92878 69.2052C7.15383 68.9818 7.45906 68.8564 7.77733 68.8564C8.0956 68.8564 8.40083 68.9818 8.62588 69.2052C8.85093 69.4286 8.97736 69.7315 8.97736 70.0474V76.4113C8.97768 76.5701 9.0095 76.7272 9.071 76.8738C9.1325 77.0203 9.22249 77.1534 9.33581 77.2655C9.44914 77.3775 9.58359 77.4663 9.73149 77.5267C9.87939 77.5872 10.0378 77.6182 10.1978 77.6179H17.4976C17.8197 77.6172 18.1284 77.4899 18.3561 77.2637C18.5837 77.0375 18.7117 76.731 18.7121 76.4113V71.5113C18.7121 71.1954 18.8385 70.8924 19.0635 70.669C19.2886 70.4457 19.5938 70.3202 19.9121 70.3202C20.2304 70.3202 20.5356 70.4457 20.7606 70.669C20.9857 70.8924 21.1121 71.1954 21.1121 71.5113V76.4113C21.1112 77.3634 20.7294 78.2762 20.0508 78.9491C19.3721 79.622 18.4521 80 17.4928 80Z" fill="#E31E25"/>
<path d="M59.4821 17.6952C57.947 17.703 56.4403 17.2847 55.1321 16.4874C53.824 15.6902 52.7665 14.5458 52.079 13.1834H31.9184C31.1964 14.5951 30.0801 15.7706 28.7029 16.5694C27.3258 17.3682 25.746 17.7566 24.1524 17.6882C22.5588 17.6197 21.0188 17.0973 19.7163 16.1834C18.4139 15.2694 17.4041 14.0026 16.8076 12.5343C16.7337 12.3534 16.7056 12.1573 16.726 11.9632C16.7463 11.769 16.8144 11.5828 16.9243 11.421C17.0342 11.2591 17.1825 11.1265 17.3561 11.0349C17.5297 10.9432 17.7234 10.8953 17.92 10.8954H21.2633L22.6782 8.84555L21.2669 6.79453H17.9236C17.727 6.79461 17.5333 6.74672 17.3597 6.65507C17.1861 6.56342 17.0378 6.43082 16.9279 6.26895C16.818 6.10707 16.7499 5.92088 16.7296 5.72674C16.7092 5.53261 16.7373 5.33648 16.8112 5.15562C17.4097 3.68944 18.4204 2.42503 19.7228 1.51318C21.0252 0.601326 22.5644 0.0805136 24.1568 0.0128444C25.7492 -0.0548247 27.3276 0.333505 28.7038 1.13153C30.08 1.92955 31.1959 3.10359 31.9184 4.51364H52.079C52.8006 3.10206 53.9164 1.92653 55.293 1.12747C56.6697 0.328423 58.249 -0.0603516 59.8423 0.00760202C61.4356 0.0755557 62.9755 0.597363 64.278 1.51068C65.5805 2.424 66.5906 3.6902 67.1875 5.15801C67.261 5.33884 67.2886 5.53481 67.2679 5.72872C67.2473 5.92262 67.179 6.10853 67.069 6.27011C66.959 6.43169 66.8108 6.56401 66.6373 6.65545C66.4638 6.74689 66.2703 6.79465 66.0739 6.79453H62.7306L61.3193 8.84555L62.7258 10.8954H66.0691C66.2655 10.8953 66.459 10.943 66.6325 11.0345C66.806 11.1259 66.9543 11.2582 67.0642 11.4198C67.1742 11.5814 67.2425 11.7673 67.2631 11.9612C67.2838 12.1551 67.2562 12.3511 67.1827 12.5319C66.5683 14.0594 65.5057 15.3685 64.1325 16.2892C62.7594 17.2098 61.1392 17.6997 59.4821 17.6952ZM31.1432 10.8013H52.8639C53.1062 10.8013 53.3429 10.8741 53.5427 11.0102C53.7426 11.1462 53.8962 11.3392 53.9835 11.5636C54.3517 12.5069 54.9595 13.3395 55.748 13.9806C56.5364 14.6216 57.4786 15.0492 58.4829 15.2218C59.4872 15.3943 60.5194 15.3059 61.479 14.9652C62.4387 14.6245 63.2932 14.0431 63.9594 13.2775H62.0957C61.9003 13.2774 61.7078 13.23 61.5351 13.1393C61.3624 13.0485 61.2145 12.9173 61.1045 12.757L58.8796 9.51613C58.744 9.31843 58.6714 9.08476 58.6714 8.84555C58.6714 8.60635 58.744 8.37268 58.8796 8.17498L61.1045 4.93289C61.2145 4.77258 61.3624 4.64137 61.5351 4.55066C61.7078 4.45995 61.9003 4.41249 62.0957 4.4124H63.9594C63.2927 3.64642 62.4376 3.06481 61.4772 2.72421C60.5168 2.38361 59.484 2.29561 58.4792 2.46878C57.4744 2.64195 56.5319 3.07039 55.7434 3.71239C54.9549 4.3544 54.3474 5.18808 53.9799 6.1323C53.8928 6.35693 53.7393 6.55012 53.5394 6.68641C53.3395 6.8227 53.1028 6.89569 52.8603 6.89578H31.1396C30.8973 6.89579 30.6606 6.82297 30.4607 6.6869C30.2609 6.55084 30.1072 6.3579 30.02 6.13349C29.6525 5.18895 29.0449 4.35493 28.2563 3.71266C27.4677 3.07038 26.525 2.64172 25.5199 2.46842C24.5148 2.29513 23.4817 2.3831 22.521 2.72376C21.5604 3.06443 20.705 3.64619 20.0381 4.4124H21.8969C22.0924 4.41249 22.2848 4.45995 22.4576 4.55066C22.6303 4.64137 22.7781 4.77258 22.8882 4.93289L25.113 8.17498C25.2487 8.37268 25.3213 8.60635 25.3213 8.84555C25.3213 9.08476 25.2487 9.31843 25.113 9.51613L22.8882 12.757C22.7781 12.9173 22.6303 13.0485 22.4576 13.1393C22.2848 13.23 22.0924 13.2774 21.8969 13.2775H20.0381C20.7043 14.0448 21.5594 14.6276 22.5201 14.9693C23.4807 15.3109 24.5142 15.3997 25.5197 15.227C26.5253 15.0542 27.4685 14.6259 28.2577 13.9837C29.0468 13.3414 29.6548 12.5072 30.0224 11.5624C30.1099 11.338 30.2638 11.1452 30.4639 11.0093C30.664 10.8735 30.9008 10.8009 31.1432 10.8013Z" fill="#E31E25"/>
</svg>
