<svg width="57" height="80" viewBox="0 0 57 80" fill="none" xmlns="http://www.w3.org/2000/svg">
<path d="M52.9509 22.1589H46.0206C45.0809 22.1589 44.1798 21.7856 43.5154 21.1212C42.851 20.4568 42.4777 19.5556 42.4777 18.616V3.54286C42.4792 2.6037 42.853 1.70344 43.5171 1.03935C44.1812 0.37526 45.0814 0.00151112 46.0206 0H52.9509C53.89 0.00151112 54.7903 0.37526 55.4544 1.03935C56.1185 1.70344 56.4922 2.6037 56.4937 3.54286V18.6137C56.494 19.0792 56.4026 19.5401 56.2247 19.9702C56.0468 20.4003 55.7859 20.7911 55.4568 21.1204C55.1278 21.4496 54.7372 21.7108 54.3072 21.889C53.8772 22.0671 53.4163 22.1589 52.9509 22.1589ZM46.0206 2.28571C45.6872 2.28571 45.3674 2.41816 45.1316 2.65392C44.8959 2.88968 44.7634 3.20944 44.7634 3.54286V18.6137C44.7634 18.7788 44.7959 18.9423 44.8591 19.0948C44.9223 19.2473 45.0149 19.3859 45.1316 19.5026C45.2484 19.6194 45.387 19.712 45.5395 19.7752C45.692 19.8383 45.8555 19.8709 46.0206 19.8709H52.9509C53.116 19.8709 53.2794 19.8383 53.4319 19.7752C53.5845 19.712 53.7231 19.6194 53.8398 19.5026C53.9565 19.3859 54.0491 19.2473 54.1123 19.0948C54.1755 18.9423 54.208 18.7788 54.208 18.6137V3.54286C54.208 3.20944 54.0756 2.88968 53.8398 2.65392C53.604 2.41816 53.2843 2.28571 52.9509 2.28571H46.0206Z" fill="#E31E25"/>
<path d="M10.4731 22.1589H3.54286C2.60323 22.1589 1.70209 21.7856 1.03768 21.1212C0.373264 20.4568 0 19.5556 0 18.616V3.54286C0.00151112 2.6037 0.37526 1.70344 1.03935 1.03935C1.70343 0.37526 2.6037 0.00151112 3.54286 0H10.4731C11.4123 0.00151112 12.3126 0.37526 12.9767 1.03935C13.6407 1.70344 14.0145 2.6037 14.016 3.54286V18.6137C14.0163 19.0792 13.9249 19.5401 13.747 19.9702C13.5691 20.4003 13.3081 20.7911 12.9791 21.1204C12.6501 21.4496 12.2595 21.7108 11.8295 21.889C11.3995 22.0671 10.9386 22.1589 10.4731 22.1589ZM3.54286 2.28571C3.20944 2.28571 2.88968 2.41816 2.65392 2.65392C2.41816 2.88968 2.28571 3.20944 2.28571 3.54286V18.6137C2.28571 18.7788 2.31823 18.9423 2.38141 19.0948C2.44458 19.2473 2.53719 19.3859 2.65392 19.5026C2.77066 19.6194 2.90925 19.712 3.06177 19.7752C3.21429 19.8383 3.37777 19.8709 3.54286 19.8709H10.4731C10.6382 19.8709 10.8017 19.8383 10.9542 19.7752C11.1068 19.712 11.2453 19.6194 11.3621 19.5026C11.4788 19.3859 11.5714 19.2473 11.6346 19.0948C11.6978 18.9423 11.7303 18.7788 11.7303 18.6137V3.54286C11.7303 3.37777 11.6978 3.21429 11.6346 3.06177C11.5714 2.90925 11.4788 2.77066 11.3621 2.65392C11.2453 2.53719 11.1068 2.44459 10.9542 2.38141C10.8017 2.31823 10.6382 2.28571 10.4731 2.28571H3.54286Z" fill="#E31E25"/>
<path d="M52.9509 80H46.0206C45.0814 79.9985 44.1812 79.6247 43.5171 78.9606C42.853 78.2966 42.4792 77.3963 42.4777 76.4571V61.3863C42.4777 60.4467 42.851 59.5455 43.5154 58.8811C44.1798 58.2167 45.0809 57.8434 46.0206 57.8434H52.9509C53.8905 57.8434 54.7916 58.2167 55.456 58.8811C56.1205 59.5455 56.4937 60.4467 56.4937 61.3863V76.4571C56.4922 77.3963 56.1185 78.2966 55.4544 78.9606C54.7903 79.6247 53.89 79.9985 52.9509 80ZM46.0206 60.1269C45.6872 60.1269 45.3674 60.2593 45.1316 60.4951C44.8959 60.7308 44.7634 61.0506 44.7634 61.384V76.4571C44.7634 76.7906 44.8959 77.1103 45.1316 77.3461C45.3674 77.5818 45.6872 77.7143 46.0206 77.7143H52.9509C53.2843 77.7143 53.604 77.5818 53.8398 77.3461C54.0756 77.1103 54.208 76.7906 54.208 76.4571V61.3863C54.208 61.0529 54.0756 60.7331 53.8398 60.4974C53.604 60.2616 53.2843 60.1291 52.9509 60.1291L46.0206 60.1269Z" fill="#E31E25"/>
<path d="M10.4731 80H3.54286C2.6037 79.9985 1.70343 79.6247 1.03935 78.9606C0.37526 78.2966 0.00151112 77.3963 0 76.4571V61.3863C0 60.4467 0.373264 59.5455 1.03768 58.8811C1.70209 58.2167 2.60323 57.8434 3.54286 57.8434H10.4731C11.4128 57.8434 12.3139 58.2167 12.9783 58.8811C13.6427 59.5455 14.016 60.4467 14.016 61.3863V76.4571C14.0145 77.3963 13.6407 78.2966 12.9767 78.9606C12.3126 79.6247 11.4123 79.9985 10.4731 80ZM3.54286 60.1269C3.20944 60.1269 2.88968 60.2593 2.65392 60.4951C2.41816 60.7308 2.28571 61.0506 2.28571 61.384V76.4571C2.28571 76.7906 2.41816 77.1103 2.65392 77.3461C2.88968 77.5818 3.20944 77.7143 3.54286 77.7143H10.4731C10.6382 77.7143 10.8017 77.6818 10.9542 77.6186C11.1068 77.5554 11.2453 77.4628 11.3621 77.3461C11.4788 77.2293 11.5714 77.0908 11.6346 76.9382C11.6978 76.7857 11.7303 76.6222 11.7303 76.4571V61.3863C11.7303 61.2212 11.6978 61.0577 11.6346 60.9052C11.5714 60.7527 11.4788 60.6141 11.3621 60.4974C11.2453 60.3806 11.1068 60.288 10.9542 60.2248C10.8017 60.1617 10.6382 60.1291 10.4731 60.1291L3.54286 60.1269Z" fill="#E31E25"/>
<path d="M12.8823 9.59771H21.2V11.8834H12.8823V9.59771Z" fill="#E31E25"/>
<path d="M35.2949 9.59771H43.6126V11.8834H35.2949V9.59771Z" fill="#E31E25"/>
<path d="M12.8823 67.7783H24.4651V70.064H12.8823V67.7783Z" fill="#E31E25"/>
<path d="M32.0286 67.7783H43.6114V70.064H32.0286V67.7783Z" fill="#E31E25"/>
<path d="M18.1257 29.2526H20.4114V68.92H18.1257V29.2526Z" fill="#E31E25"/>
<path d="M36.0823 29.2526H38.368V68.92H36.0823V29.2526Z" fill="#E31E25"/>
<path d="M36.2048 28.7611L42.5929 15.1111L44.6637 16.0802L38.2756 29.7303L36.2048 28.7611Z" fill="#E31E25"/>
<path d="M11.8571 16.0941L13.9279 15.1249L20.316 28.775L18.2452 29.7441L11.8571 16.0941Z" fill="#E31E25"/>
<path d="M28.2469 73.8446C27.2728 73.8448 26.3205 73.5561 25.5105 73.0151C24.7005 72.4741 24.0691 71.705 23.6962 70.8051C23.3234 69.9052 23.2257 68.9149 23.4157 67.9595C23.6057 67.0042 24.0747 66.1266 24.7635 65.4378C25.4523 64.749 26.3299 64.28 27.2853 64.09C28.2406 63.9 29.2309 63.9976 30.1308 64.3705C31.0307 64.7434 31.7998 65.3748 32.3408 66.1848C32.8819 66.9948 33.1705 67.9471 33.1703 68.9211C33.1688 70.2265 32.6496 71.4779 31.7266 72.4009C30.8036 73.3239 29.5522 73.8431 28.2469 73.8446ZM28.2469 66.2857C27.7249 66.2855 27.2146 66.4401 26.7805 66.7299C26.3464 67.0197 26.008 67.4318 25.8081 67.9139C25.6082 68.3961 25.5557 68.9267 25.6574 69.4387C25.7591 69.9507 26.0103 70.421 26.3794 70.7901C26.7484 71.1593 27.2186 71.4107 27.7305 71.5126C28.2424 71.6146 28.773 71.5624 29.2553 71.3627C29.7376 71.163 30.1497 70.8247 30.4398 70.3908C30.7298 69.9568 30.8846 69.4465 30.8846 68.9246C30.8837 68.2252 30.6055 67.5547 30.1111 67.06C29.6166 66.5654 28.9462 66.2869 28.2469 66.2857Z" fill="#E31E25"/>
<path d="M27.104 22.9326H29.3897V35.2023H27.104V22.9326Z" fill="#E31E25"/>
<path d="M27.104 55.0366H29.3897V65.1383H27.104V55.0366Z" fill="#E31E25"/>
<path d="M28.2469 56.1794C26.8921 56.1779 25.5933 55.6391 24.6354 54.6812C23.6775 53.7232 23.1387 52.4244 23.1371 51.0697V39.1691C23.1371 37.814 23.6755 36.5143 24.6337 35.556C25.592 34.5978 26.8917 34.0594 28.2469 34.0594C29.602 34.0594 30.9017 34.5978 31.86 35.556C32.8182 36.5143 33.3566 37.814 33.3566 39.1691V51.0697C33.3551 52.4244 32.8162 53.7232 31.8583 54.6812C30.9004 55.6391 29.6016 56.1779 28.2469 56.1794ZM28.2469 36.3429C27.4982 36.3438 26.7804 36.6416 26.251 37.171C25.7216 37.7004 25.4238 38.4182 25.4229 39.1669V51.0697C25.4229 51.8187 25.7204 52.537 26.25 53.0666C26.7796 53.5962 27.4979 53.8937 28.2469 53.8937C28.9958 53.8937 29.7141 53.5962 30.2437 53.0666C30.7733 52.537 31.0709 51.8187 31.0709 51.0697V39.1691C31.0706 38.4201 30.773 37.7017 30.2435 37.1718C29.7141 36.6419 28.9959 36.3438 28.2469 36.3429Z" fill="#E31E25"/>
<path d="M32.4686 23.784H24.0251L20.0526 15.8777V9.99771C20.0538 8.89862 20.4909 7.84487 21.2679 7.06759C22.045 6.2903 23.0986 5.85294 24.1977 5.85143H32.296C33.3951 5.85294 34.4487 6.2903 35.2258 7.06759C36.0029 7.84487 36.4399 8.89862 36.4411 9.99771V15.8777L32.4686 23.784ZM25.4343 21.4983H31.0594L34.1554 15.3349V9.99771C34.1551 9.50455 33.9592 9.03166 33.6105 8.68283C33.2619 8.334 32.7892 8.13775 32.296 8.13714H24.1977C23.7046 8.13775 23.2318 8.334 22.8832 8.68283C22.5346 9.03166 22.3386 9.50455 22.3383 9.99771V15.3349L25.4343 21.4983Z" fill="#E31E25"/>
</svg>
